<mxfile host="Electron" modified="2023-09-07T13:47:55.638Z" agent="Mozilla/5.0 (X11; Linux x86_64) AppleWebKit/537.36 (KHTML, like Gecko) draw.io/21.6.8 Chrome/114.0.5735.289 Electron/25.5.0 Safari/537.36" etag="tWR24SLJHeAl779da9sV" version="21.6.8" type="device">
  <diagram name="Pagina-1" id="O-ANC7OCULmyfIRwscqU">
    <mxGraphModel dx="870" dy="535" grid="1" gridSize="10" guides="1" tooltips="1" connect="1" arrows="1" fold="1" page="1" pageScale="1" pageWidth="827" pageHeight="1169" math="0" shadow="0">
      <root>
        <mxCell id="0" />
        <mxCell id="1" parent="0" />
        <mxCell id="Zmt1Jw_SHi9WXFiFWZIK-7" value="Serverproces" style="text;html=1;strokeColor=none;fillColor=none;align=left;verticalAlign=top;whiteSpace=wrap;rounded=0;spacing=8;" vertex="1" parent="1">
          <mxGeometry x="480" y="130" width="80" height="80" as="geometry" />
        </mxCell>
        <mxCell id="Zmt1Jw_SHi9WXFiFWZIK-8" value="" style="endArrow=classic;html=1;rounded=0;endFill=1;startArrow=none;startFill=0;strokeWidth=1;shape=flexArrow;endSize=5.153846153846154;endWidth=10;fillColor=#000000;strokeColor=none;fontSize=11;fillStyle=solid;width=5;" edge="1" parent="1" source="Zmt1Jw_SHi9WXFiFWZIK-12" target="Zmt1Jw_SHi9WXFiFWZIK-9">
          <mxGeometry relative="1" as="geometry">
            <mxPoint x="220" y="136" as="sourcePoint" />
            <mxPoint x="166" y="160" as="targetPoint" />
          </mxGeometry>
        </mxCell>
        <mxCell id="Zmt1Jw_SHi9WXFiFWZIK-9" value="" style="shape=parallelogram;perimeter=parallelogramPerimeter;whiteSpace=wrap;html=1;fixedSize=1;fillOpacity=100;arcSize=20;size=30;" vertex="1" parent="1">
          <mxGeometry x="480" y="50" width="80" height="80" as="geometry" />
        </mxCell>
        <mxCell id="Zmt1Jw_SHi9WXFiFWZIK-10" value="Webbrowserproces" style="text;html=1;strokeColor=none;fillColor=none;align=left;verticalAlign=top;whiteSpace=wrap;rounded=0;spacing=8;" vertex="1" parent="1">
          <mxGeometry x="40" y="220" width="110" height="80" as="geometry" />
        </mxCell>
        <mxCell id="Zmt1Jw_SHi9WXFiFWZIK-16" value="" style="group;fillColor=none;" vertex="1" connectable="0" parent="1">
          <mxGeometry x="70" y="100" width="34.5" height="30" as="geometry" />
        </mxCell>
        <mxCell id="Zmt1Jw_SHi9WXFiFWZIK-17" value="" style="ellipse;whiteSpace=wrap;html=1;aspect=fixed;fillColor=none;" vertex="1" parent="Zmt1Jw_SHi9WXFiFWZIK-16">
          <mxGeometry width="30" height="30" as="geometry" />
        </mxCell>
        <mxCell id="Zmt1Jw_SHi9WXFiFWZIK-18" value="" style="triangle;whiteSpace=wrap;html=1;rotation=90;strokeColor=none;fillColor=#000000;" vertex="1" parent="Zmt1Jw_SHi9WXFiFWZIK-16">
          <mxGeometry x="27" y="13.5" width="6" height="9" as="geometry" />
        </mxCell>
        <mxCell id="Zmt1Jw_SHi9WXFiFWZIK-11" value="" style="group" vertex="1" connectable="0" parent="1">
          <mxGeometry x="40" y="120" width="110" height="100" as="geometry" />
        </mxCell>
        <mxCell id="Zmt1Jw_SHi9WXFiFWZIK-12" value="" style="shape=parallelogram;perimeter=parallelogramPerimeter;whiteSpace=wrap;html=1;fixedSize=1;fillOpacity=100;arcSize=20;size=30;" vertex="1" parent="Zmt1Jw_SHi9WXFiFWZIK-11">
          <mxGeometry x="20" width="90" height="100" as="geometry" />
        </mxCell>
        <mxCell id="Zmt1Jw_SHi9WXFiFWZIK-13" value="" style="rounded=0;whiteSpace=wrap;html=1;" vertex="1" parent="Zmt1Jw_SHi9WXFiFWZIK-11">
          <mxGeometry x="20" y="25" width="50" height="10" as="geometry" />
        </mxCell>
        <mxCell id="Zmt1Jw_SHi9WXFiFWZIK-14" value="" style="rounded=0;whiteSpace=wrap;html=1;" vertex="1" parent="Zmt1Jw_SHi9WXFiFWZIK-11">
          <mxGeometry x="10" y="45" width="50" height="10" as="geometry" />
        </mxCell>
        <mxCell id="Zmt1Jw_SHi9WXFiFWZIK-15" value="" style="rounded=0;whiteSpace=wrap;html=1;" vertex="1" parent="Zmt1Jw_SHi9WXFiFWZIK-11">
          <mxGeometry y="65" width="50" height="10" as="geometry" />
        </mxCell>
        <mxCell id="Zmt1Jw_SHi9WXFiFWZIK-19" value="" style="shape=parallelogram;perimeter=parallelogramPerimeter;whiteSpace=wrap;html=1;fixedSize=1;fillOpacity=100;arcSize=20;size=30;" vertex="1" parent="1">
          <mxGeometry x="480" y="200" width="80" height="80" as="geometry" />
        </mxCell>
        <mxCell id="Zmt1Jw_SHi9WXFiFWZIK-20" value="OIDC-autoriteit" style="text;html=1;strokeColor=none;fillColor=none;align=left;verticalAlign=top;whiteSpace=wrap;rounded=0;spacing=8;" vertex="1" parent="1">
          <mxGeometry x="480" y="280" width="80" height="80" as="geometry" />
        </mxCell>
        <mxCell id="Zmt1Jw_SHi9WXFiFWZIK-21" value="" style="endArrow=classic;html=1;rounded=0;endFill=1;startArrow=none;startFill=0;strokeWidth=1;shape=flexArrow;endSize=5.153846153846154;endWidth=10;fillColor=#000000;strokeColor=none;fontSize=11;fillStyle=solid;width=5;" edge="1" parent="1" source="Zmt1Jw_SHi9WXFiFWZIK-12" target="Zmt1Jw_SHi9WXFiFWZIK-19">
          <mxGeometry relative="1" as="geometry">
            <mxPoint x="145" y="100" as="sourcePoint" />
            <mxPoint x="505" y="100" as="targetPoint" />
          </mxGeometry>
        </mxCell>
      </root>
    </mxGraphModel>
  </diagram>
</mxfile>
